<svg width="135" height="87" fill="none" xmlns="http://www.w3.org/2000/svg"><path d="M27.376 23.32c.821 0 1.792.13 2.912.392l.224.392-.448 2.408c-.859-.187-1.55-.28-2.072-.28-1.195 0-2.072.336-2.632 1.008-.56.672-.84 1.699-.84 3.08 0 1.195.205 2.781.616 4.76.373 2.165.56 3.64.56 4.424 0 2.763-1.25 4.685-3.752 5.768v.224c2.501 1.083 3.752 2.987 3.752 5.712 0 .859-.187 2.333-.56 4.424-.41 2.053-.616 3.64-.616 4.76 0 1.419.28 2.464.84 3.136.56.672 1.437 1.008 2.632 1.008.523 0 1.213-.093 2.072-.28l.448 2.408-.224.392c-.933.224-1.904.336-2.912.336-2.09 0-3.696-.541-4.816-1.624-1.083-1.045-1.624-2.595-1.624-4.648 0-1.008.093-2.11.28-3.304.187-1.195.299-1.923.336-2.184.336-1.867.504-3.285.504-4.256 0-2.725-1.512-4.33-4.536-4.816v-2.296c1.568-.299 2.707-.84 3.416-1.624.747-.821 1.12-1.904 1.12-3.248 0-.933-.168-2.333-.504-4.2-.037-.224-.15-.952-.336-2.184-.187-1.232-.28-2.352-.28-3.36 0-2.053.541-3.621 1.624-4.704 1.12-1.083 2.725-1.624 4.816-1.624zm14.06 25.48l.169 11.2H37.18l.168-10.808-.168-25.088h4.48L41.437 48.8zm5.545-7.84a223.23 223.23 0 0015.568 18.088l-.056.56c-1.12.336-2.52.635-4.2.896l-.56-.28c-5.899-6.683-11.05-13.03-15.456-19.04v-.336L54.26 27.24l2.24-3.136h5.04L46.98 40.96zm50.346 7.84l.112 11.2h-4.424l.224-10.808-.056-5.376-9.968-.056-9.128.056-.056 4.984.168 11.2h-4.424l.168-10.808-.168-25.088h4.48l-.168 15.904 9.52.056 9.576-.056-.168-15.904h4.536L97.327 48.8zm9.909 18.648c-.821 0-1.792-.13-2.912-.392l-.224-.392.448-2.408c.859.187 1.55.28 2.072.28 1.195 0 2.072-.336 2.632-1.008.56-.672.84-1.699.84-3.08 0-1.195-.205-2.781-.616-4.76-.373-2.165-.56-3.64-.56-4.424 0-2.763 1.251-4.685 3.752-5.768v-.224c-2.501-1.083-3.752-2.987-3.752-5.712 0-.859.187-2.333.56-4.424.411-2.053.616-3.64.616-4.76 0-1.419-.28-2.464-.84-3.136-.56-.672-1.437-1.008-2.632-1.008-.522 0-1.213.093-2.072.28l-.448-2.408.224-.392a12.44 12.44 0 012.912-.336c2.091 0 3.678.541 4.76 1.624 1.12 1.045 1.68 2.595 1.68 4.648 0 1.008-.093 2.11-.28 3.304a335.752 335.752 0 00-.336 2.184c-.336 1.867-.504 3.285-.504 4.256 0 2.725 1.512 4.33 4.536 4.816v2.296c-1.568.299-2.725.859-3.472 1.68-.709.784-1.064 1.848-1.064 3.192 0 .933.168 2.333.504 4.2.038.224.15.952.336 2.184.187 1.232.28 2.352.28 3.36 0 2.053-.56 3.621-1.68 4.704-1.082 1.083-2.669 1.624-4.76 1.624z" fill="#fff"/></svg>